<svg id="Layer_2" height="512" viewBox="0 0 128 128" width="512" xmlns="http://www.w3.org/2000/svg" data-name="Layer 2"><path d="m123.705 106.046-48.858-42.566 7.5-8.6a16.7 16.7 0 0 0 21.368-3.595l17.281-20.636a16.989 16.989 0 0 0 -.277-22.46 16.708 16.708 0 0 0 -22.949-1.429l-21 17.583a16.7 16.7 0 0 0 -3.595 21.369l-9.363 8.157-6.074-5.293a16.7 16.7 0 0 0 -3.6-21.368l-9.418-7.893-17.842-17.842a5.029 5.029 0 1 0 -7.112 7.112l15.513 15.515a1.578 1.578 0 0 1 .233 2.048 1.439 1.439 0 0 1 -2.138.116l-15.643-15.644a5.028 5.028 0 1 0 -7.111 7.111l15.513 15.514a1.577 1.577 0 0 1 .232 2.048 1.438 1.438 0 0 1 -2.138.115l-15.642-15.642a5.029 5.029 0 1 0 -7.112 7.112l17.842 17.842 7.893 9.425a16.7 16.7 0 0 0 21.368 3.6l4.658 5.346-46.02 40.1a12.516 12.516 0 0 0 8.226 21.954c.142 0 .284 0 .426-.008a12.558 12.558 0 0 0 9.007-4.287l39.339-45.163 41.834 48.018a12.555 12.555 0 0 0 9.006 4.288c.142.005.284.007.426.007a12.517 12.517 0 0 0 8.227-21.954zm-67.832-45.258-5.668-6.506a1.75 1.75 0 0 0 -2.362-.257 13.193 13.193 0 0 1 -17.952-2.125l-7.942-9.483a1.418 1.418 0 0 0 -.105-.114l-17.896-17.903a1.528 1.528 0 0 1 0-2.162 1.566 1.566 0 0 1 2.162 0l15.642 15.645a4.939 4.939 0 0 0 7.322-.374 5.081 5.081 0 0 0 -.467-6.739l-15.513-15.513a1.528 1.528 0 0 1 0-2.163 1.567 1.567 0 0 1 2.162 0l15.644 15.642a4.938 4.938 0 0 0 7.322-.373 5.081 5.081 0 0 0 -.467-6.739l-15.514-15.514a1.528 1.528 0 0 1 0-2.162 1.565 1.565 0 0 1 2.162 0l17.9 17.9a1.418 1.418 0 0 0 .114.105l9.483 7.938a13.193 13.193 0 0 1 2.128 17.952 1.75 1.75 0 0 0 .257 2.362l6.869 5.985-3.139 2.735zm-33.639 57.754a9.017 9.017 0 1 1 -12.721-12.722l50.709-44.178 4.743-4.133 11.672-10.169a1.751 1.751 0 0 0 .257-2.361 13.2 13.2 0 0 1 2.127-17.952l21-17.583a13.2 13.2 0 0 1 18.137 1.127 13.485 13.485 0 0 1 .155 17.827l-17.286 20.636a13.19 13.19 0 0 1 -17.951 2.127 1.749 1.749 0 0 0 -2.361.256l-9.654 11.083-8.166 9.374zm99.625 3.317a9.015 9.015 0 0 1 -13.174-.453l-42.152-48.383 5.643-6.477.372-.427 48.858 42.566a9.015 9.015 0 0 1 .453 13.174z"/></svg>