<svg id="Layer_1" height="512" viewBox="0 0 128 128" width="512" xmlns="http://www.w3.org/2000/svg" data-name="Layer 1"><path d="m117 39.22h-8.54v-1.058a8.781 8.781 0 0 0 -8.79-8.79h-3.755-.015-62.77a8.8 8.8 0 0 0 -8.79 8.79v1.06h-5.09v-32.722a1.75 1.75 0 0 0 -1.75-1.75h-11a1.75 1.75 0 0 0 -1.75 1.75v49.243a1.75 1.75 0 0 0 1.75 1.75h11a1.75 1.75 0 0 0 1.75-1.75v-4.023h5.09v69.78a1.75 1.75 0 0 0 1.75 1.75h69.81a1.75 1.75 0 0 0 1.75-1.75v-12.738h9.06a1.75 1.75 0 0 0 1.75-1.75v-55.292h8.54a6.25 6.25 0 0 0 0-12.5zm-75.08 44.53h63.04v4.375h-63.04zm61.488-49.336a5.293 5.293 0 0 1 1.552 3.748v42.088h-63.04v-42.088a8.745 8.745 0 0 0 -1.769-5.29h59.519a5.254 5.254 0 0 1 3.738 1.542zm-75.568 3.746a5.3 5.3 0 0 1 5.283-5.289h.007a5.282 5.282 0 0 1 5.29 5.29v1.059h-10.58zm-12.09 15.833h-7.5v-45.743h7.5zm3.5-11.273h19.17v5.5h-19.17zm74.9 77.03h-66.31v-68.03h10.58v55.292a1.75 1.75 0 0 0 1.75 1.75h53.98zm1.77-14.488h-.02-.019-53.961v-13.637h63.04v13.637zm21.08-57.042h-8.54v-5.5h8.54a2.75 2.75 0 0 1 0 5.5z"/><path d="m97.71 64.375a1.75 1.75 0 0 0 1.75-1.75v-16.25a1.75 1.75 0 1 0 -3.5 0v16.25a1.75 1.75 0 0 0 1.75 1.75z"/></svg>